<svg xmlns="http://www.w3.org/2000/svg" version="1.1" viewBox="120.98 251.09 360 98.24">
  <defs fill="#fa6900"/>
  <g>
    <path stroke-width="0" fill="#d43900" opacity="1.0" d="M 156.90264892578125 281.727294921875 C 158.80377197265625 281.727294921875 160.29092407226562 282.2630615234375 161.3641357421875 283.334716796875 C 162.46798706054688 284.37579345703125 163.01992797851562 285.845458984375 163.01992797851562 287.74383544921875 C 163.01992797851562 288.2337646484375 162.9892578125 288.7236328125 162.92794799804688 289.2135009765625 C 162.86660766601562 289.70343017578125 162.74395751953125 290.132080078125 162.55999755859375 290.49951171875 C 161.79339599609375 290.3770751953125 160.93484497070312 290.28515625 159.98428344726562 290.2239990234375 C 159.06439208984375 290.132080078125 157.96051025390625 290.086181640625 156.67266845703125 290.086181640625 C 154.00497436523438 290.086181640625 151.3372802734375 290.3157958984375 148.66961669921875 290.77508544921875 C 146.0325927734375 291.234375 143.51821899414062 291.6170654296875 141.12649536132812 291.92327880859375 C 138.45880126953125 298.0469970703125 136.26638793945312 303.81866455078125 134.54925537109375 309.2381591796875 C 132.86279296875 314.6270751953125 131.54428100585938 319.9547119140625 130.59371948242188 325.22113037109375 C 128.60061645507812 324.7618408203125 126.83749389648438 323.9197998046875 125.3043212890625 322.695068359375 C 123.77117919921875 321.4703369140625 122.33001708984375 319.75567626953125 120.9808349609375 317.5511474609375 C 121.37945556640625 316.632568359375 121.87005615234375 315.5302734375 122.45266723632812 314.24432373046875 C 123.06591796875 312.927734375 123.7864990234375 311.2742919921875 124.61441040039062 309.2840576171875 C 125.44232177734375 307.26324462890625 126.42352294921875 304.8291015625 127.55807495117188 301.9815673828125 C 128.69259643554688 299.1033935546875 130.05709838867188 295.6588134765625 131.65158081054688 291.647705078125 C 129.19854736328125 290.821044921875 127.5887451171875 289.3819580078125 126.8221435546875 287.33050537109375 C 127.09811401367188 287.0242919921875 127.91070556640625 286.6875 129.25985717773438 286.320068359375 C 130.63970947265625 285.9219970703125 132.2955322265625 285.493408203125 134.227294921875 285.0340576171875 C 135.11651611328125 282.7376708984375 135.88308715820312 280.7015380859375 136.52703857421875 278.9256591796875 C 137.17095947265625 277.119140625 137.7535400390625 275.404541015625 138.27481079101562 273.78173828125 C 138.82675170898438 272.158935546875 139.31735229492188 270.58203125 139.74664306640625 269.0511474609375 C 140.17593383789062 267.4896240234375 140.57455444335938 265.82086181640625 140.9425048828125 264.04498291015625 C 140.7891845703125 264.04498291015625 140.6358642578125 264.04498291015625 140.48257446289062 264.04498291015625 C 138.244140625 264.04498291015625 136.43502807617188 263.52447509765625 135.05520629882812 262.4833984375 C 133.67535400390625 261.4117431640625 132.98544311523438 260.033935546875 132.98544311523438 258.34991455078125 C 132.98544311523438 257.890625 133.06210327148438 257.3394775390625 133.21539306640625 256.696533203125 C 133.36871337890625 256.053466796875 133.55270385742188 255.50238037109375 133.767333984375 255.0430908203125 C 134.90188598632812 255.1961669921875 136.0057373046875 255.272705078125 137.07894897460938 255.272705078125 C 138.18283081054688 255.272705078125 139.60867309570312 255.272705078125 141.3564453125 255.272705078125 C 145.06671142578125 255.272705078125 148.54696655273438 255.272705078125 151.7972412109375 255.272705078125 C 155.04754638671875 255.272705078125 157.97586059570312 255.012451171875 160.58221435546875 254.491943359375 C 163.21923828125 253.971435546875 165.47299194335938 253.4815673828125 167.34344482421875 253.022216796875 C 169.2138671875 252.56298828125 170.655029296875 252.33331298828125 171.66693115234375 252.33331298828125 C 173.01611328125 252.33331298828125 174.21197509765625 253.0987548828125 175.2545166015625 254.6297607421875 C 176.32769775390625 256.16064453125 177.17095947265625 258.3345947265625 177.78421020507812 261.1514892578125 C 175.88308715820312 260.8453369140625 174.34994506835938 260.6922607421875 173.18475341796875 260.6922607421875 C 172.05023193359375 260.6922607421875 171.038330078125 260.6922607421875 170.14910888671875 260.6922607421875 C 167.14410400390625 260.6922607421875 164.38442993164062 260.83001708984375 161.87005615234375 261.1055908203125 C 159.3863525390625 261.38116455078125 157.02529907226562 261.6873779296875 154.78689575195312 262.024169921875 C 154.4495849609375 262.5753173828125 154.05096435546875 263.279541015625 153.59103393554688 264.1368408203125 C 153.1617431640625 264.9635009765625 152.594482421875 266.142333984375 151.88922119140625 267.67327880859375 C 151.18399047851562 269.2042236328125 150.2794189453125 271.209716796875 149.175537109375 273.68988037109375 C 148.10235595703125 276.139404296875 146.73782348632812 279.2471923828125 145.08203125 283.01324462890625 C 147.38174438476562 282.6458740234375 149.57415771484375 282.33966064453125 151.65927124023438 282.0947265625 C 153.74435424804688 281.8497314453125 155.49212646484375 281.727294921875 156.90264892578125 281.727294921875"/>
    <path stroke-width="0" fill="#d43900" opacity="1.0" d="M 193.60638427734375 316.4029541015625 C 192.50250244140625 315.423095703125 191.75125122070312 314.21368408203125 191.35263061523438 312.774658203125 C 190.98468017578125 311.3355712890625 190.80068969726562 310.095458984375 190.80068969726562 309.054443359375 C 190.80068969726562 307.799072265625 190.95401000976562 306.712158203125 191.26065063476562 305.7935791015625 C 191.01531982421875 305.7935791015625 190.47872924804688 306.2681884765625 189.65081787109375 307.21728515625 C 188.82293701171875 308.16650390625 187.91836547851562 309.2994384765625 186.9371337890625 310.615966796875 C 185.986572265625 311.9019775390625 185.03604125976562 313.17266845703125 184.08547973632812 314.42803955078125 C 183.13491821289062 315.68341064453125 182.4296875 316.6019287109375 181.9697265625 317.1837158203125 C 181.20315551757812 318.0103759765625 180.4825439453125 318.6534423828125 179.8079833984375 319.1126708984375 C 179.13339233398438 319.60260009765625 178.58145141601562 319.878173828125 178.15216064453125 319.93939208984375 C 177.23226928710938 319.93939208984375 176.25103759765625 319.77099609375 175.20849609375 319.4342041015625 C 174.19662475585938 319.12799072265625 173.23074340820312 318.668701171875 172.31085205078125 318.05633544921875 C 171.39096069335938 317.474609375 170.59371948242188 316.7703857421875 169.91912841796875 315.94366455078125 C 169.24453735351562 315.116943359375 168.78460693359375 314.16778564453125 168.53927612304688 313.09613037109375 C 168.53927612304688 311.412109375 168.58529663085938 310.03424072265625 168.67727661132812 308.96258544921875 C 168.76925659179688 307.89093017578125 168.96856689453125 306.7274169921875 169.27520751953125 305.4720458984375 C 169.79647827148438 303.206298828125 170.56304931640625 300.649658203125 171.574951171875 297.8021240234375 C 172.61749267578125 294.9239501953125 173.8133544921875 292.10699462890625 175.16250610351562 289.351318359375 C 176.51168823242188 286.5650634765625 178.02951049804688 283.96240234375 179.71600341796875 281.5435791015625 C 181.4024658203125 279.12469482421875 183.180908203125 277.226318359375 185.05136108398438 275.8485107421875 C 185.60330200195312 275.8485107421875 186.23187255859375 275.90972900390625 186.9371337890625 276.0322265625 C 187.64239501953125 276.1240234375 188.36297607421875 276.3077392578125 189.098876953125 276.5833740234375 C 189.83480834960938 276.8282470703125 190.54006958007812 277.13446044921875 191.21466064453125 277.50189208984375 C 191.88922119140625 277.86932373046875 192.45648193359375 278.3592529296875 192.91644287109375 278.9715576171875 C 192.39517211914062 279.5533447265625 191.06134033203125 281.52825927734375 188.9149169921875 284.89630126953125 C 186.76849365234375 288.264404296875 184.3614501953125 293.10211181640625 181.69375610351562 299.4095458984375 C 181.41778564453125 300.0831298828125 181.06515502929688 301.04766845703125 180.6358642578125 302.30303955078125 C 180.23724365234375 303.52777099609375 179.82330322265625 304.813720703125 179.39401245117188 306.1610107421875 C 178.99542236328125 307.5081787109375 178.65811157226562 308.840087890625 178.38214111328125 310.15673828125 C 178.1368408203125 311.4427490234375 178.01419067382812 312.46844482421875 178.01419067382812 313.23388671875 C 178.01419067382812 313.7237548828125 178.07550048828125 314.0911865234375 178.19818115234375 314.336181640625 C 178.35147094726562 314.550537109375 178.48947143554688 314.7188720703125 178.61212158203125 314.84136962890625 C 179.5013427734375 314.4739990234375 180.62054443359375 313.494140625 181.9697265625 311.9019775390625 C 183.31890869140625 310.2791748046875 185.20468139648438 307.81439208984375 187.6270751953125 304.507568359375 C 188.20965576171875 303.6502685546875 188.89959716796875 302.685791015625 189.69683837890625 301.6141357421875 C 190.49407958984375 300.54248046875 191.306640625 299.4095458984375 192.134521484375 298.2154541015625 C 192.96243286132812 296.99072265625 193.74435424804688 295.719970703125 194.48025512695312 294.4034423828125 C 195.2161865234375 293.0867919921875 195.81411743164062 291.77020263671875 196.2740478515625 290.45361328125 C 196.51934814453125 289.7493896484375 196.82598876953125 288.9073486328125 197.19393920898438 287.92755126953125 C 197.59255981445312 286.94775390625 198.06784057617188 285.9219970703125 198.61978149414062 284.850341796875 C 199.17172241210938 283.7786865234375 199.81564331054688 282.6917724609375 200.55157470703125 281.5894775390625 C 201.2874755859375 280.4871826171875 202.161376953125 279.46148681640625 203.17324829101562 278.5123291015625 C 203.9398193359375 278.5123291015625 204.75241088867188 278.6195068359375 205.6109619140625 278.83380126953125 C 206.50018310546875 279.01751708984375 207.34344482421875 279.262451171875 208.14068603515625 279.56866455078125 C 208.93789672851562 279.84423828125 209.6278076171875 280.16571044921875 210.21041870117188 280.53314208984375 C 210.82366943359375 280.86993408203125 211.268310546875 281.23736572265625 211.54428100585938 281.6353759765625 C 210.501708984375 284.238037109375 209.32119750976562 286.8099365234375 208.002685546875 289.351318359375 C 206.71484375 291.8927001953125 205.503662109375 294.3880615234375 204.36911010742188 296.83758544921875 C 203.26522827148438 299.287109375 202.33001708984375 301.7213134765625 201.56344604492188 304.14013671875 C 200.796875 306.55902099609375 200.41357421875 308.9320068359375 200.41357421875 311.259033203125 C 200.41357421875 312.4837646484375 200.52090454101562 313.555419921875 200.73553466796875 314.4739990234375 C 200.95016479492188 315.39251708984375 201.16482543945312 316.17333984375 201.37945556640625 316.8162841796875 C 201.624755859375 317.42864990234375 201.854736328125 317.933837890625 202.06939697265625 318.3319091796875 C 202.28402709960938 318.7606201171875 202.391357421875 319.1126708984375 202.391357421875 319.38824462890625 C 202.391357421875 319.449462890625 202.33001708984375 319.5413818359375 202.20736694335938 319.663818359375 C 202.14602661132812 319.8475341796875 202.084716796875 319.93939208984375 202.02337646484375 319.93939208984375 C 201.5941162109375 319.93939208984375 201.0574951171875 319.8475341796875 200.41357421875 319.663818359375 C 199.7696533203125 319.4801025390625 199.049072265625 319.2198486328125 198.2518310546875 318.883056640625 C 197.45458984375 318.5462646484375 196.6573486328125 318.16351318359375 195.860107421875 317.73486328125 C 195.09353637695312 317.3367919921875 194.34228515625 316.892822265625 193.60638427734375 316.4029541015625"/>
    <path stroke-width="0" fill="#d43900" opacity="1.0" d="M 218.99542236328125 284.2073974609375 C 218.68878173828125 283.809326171875 218.41281127929688 282.982666015625 218.16751098632812 281.727294921875 C 217.95285034179688 280.471923828125 217.84552001953125 279.38494873046875 217.84552001953125 278.46636962890625 C 219.3480224609375 278.68072509765625 220.80450439453125 278.787841796875 222.21502685546875 278.787841796875 C 223.65618896484375 278.787841796875 224.95938110351562 278.787841796875 226.12457275390625 278.787841796875 C 227.0137939453125 276.95074462890625 227.96435546875 275.144287109375 228.97625732421875 273.368408203125 C 230.018798828125 271.5618896484375 231.01531982421875 269.92376708984375 231.96588134765625 268.4541015625 C 232.94711303710938 266.9537353515625 233.86700439453125 265.68310546875 234.7255859375 264.64202880859375 C 235.58413696289062 263.60101318359375 236.243408203125 262.9273681640625 236.70333862304688 262.6212158203125 C 237.31658935546875 262.6212158203125 238.06784057617188 262.7283935546875 238.95709228515625 262.9427490234375 C 239.876953125 263.15704345703125 240.81219482421875 263.4478759765625 241.76275634765625 263.8153076171875 C 242.71331787109375 264.15216064453125 243.57186889648438 264.51953125 244.33843994140625 264.9176025390625 C 245.10504150390625 265.2850341796875 245.62628173828125 265.6524658203125 245.90228271484375 266.0198974609375 C 244.15447998046875 268.22442626953125 242.63665771484375 270.27587890625 241.34881591796875 272.17425537109375 C 240.09161376953125 274.0419921875 238.72711181640625 276.185302734375 237.25527954101562 278.6041259765625 C 238.42047119140625 278.6041259765625 239.60101318359375 278.6041259765625 240.796875 278.6041259765625 C 242.02337646484375 278.6041259765625 243.24990844726562 278.634765625 244.4764404296875 278.696044921875 C 244.7830810546875 278.94097900390625 245.02838134765625 279.262451171875 245.21234130859375 279.6605224609375 C 245.39633178710938 280.0279541015625 245.48831176757812 280.41064453125 245.48831176757812 280.8087158203125 C 242.5753173828125 281.88037109375 239.06439208984375 282.41619873046875 234.95553588867188 282.41619873046875 C 233.48370361328125 285.2025146484375 232.16519165039062 287.9735107421875 231.0 290.7291259765625 C 229.865478515625 293.48486328125 228.89959716796875 296.148681640625 228.10235595703125 298.72064208984375 C 227.30511474609375 301.261962890625 226.69183349609375 303.66552734375 226.2625732421875 305.93133544921875 C 225.83328247070312 308.16650390625 225.61862182617188 310.1873779296875 225.61862182617188 311.99383544921875 C 225.61862182617188 314.5657958984375 226.58453369140625 315.9896240234375 228.51629638671875 316.26513671875 C 230.26409912109375 316.05078125 231.93524169921875 315.637451171875 233.52972412109375 315.02508544921875 C 235.12420654296875 314.4127197265625 236.53469848632812 313.6319580078125 237.76123046875 312.6827392578125 C 238.12918090820312 313.17266845703125 238.34381103515625 313.5706787109375 238.4051513671875 313.87689208984375 C 238.03717041015625 314.3668212890625 237.42391967773438 314.94854736328125 236.56536865234375 315.6221923828125 C 235.73745727539062 316.2957763671875 234.81756591796875 316.938720703125 233.8056640625 317.5511474609375 C 232.79379272460938 318.194091796875 231.81256103515625 318.72998046875 230.86203002929688 319.15863037109375 C 229.942138671875 319.617919921875 229.252197265625 319.878173828125 228.79226684570312 319.93939208984375 C 227.3204345703125 319.93939208984375 225.84860229492188 319.663818359375 224.37677001953125 319.1126708984375 C 222.90493774414062 318.5615234375 221.5557861328125 317.8572998046875 220.32925415039062 317.0 C 219.13339233398438 316.17333984375 218.15216064453125 315.2547607421875 217.38558959960938 314.24432373046875 C 216.6190185546875 313.2032470703125 216.2357177734375 312.17755126953125 216.2357177734375 311.1671142578125 C 216.2357177734375 309.85052490234375 216.41970825195312 308.18182373046875 216.78765869140625 306.1610107421875 C 217.186279296875 304.1094970703125 217.73822021484375 301.8896484375 218.4434814453125 299.50146484375 C 219.14871215820312 297.08251953125 219.9613037109375 294.57177734375 220.88119506835938 291.96923828125 C 221.83172607421875 289.36663818359375 222.874267578125 286.77935791015625 224.00881958007812 284.2073974609375 C 222.33767700195312 284.2073974609375 220.66653442382812 284.2073974609375 218.99542236328125 284.2073974609375"/>
    <path stroke-width="0" fill="#d43900" opacity="1.0" d="M 270.14141845703125 316.4029541015625 C 269.0375671386719 315.423095703125 268.28631591796875 314.21368408203125 267.8876953125 312.774658203125 C 267.5197448730469 311.3355712890625 267.33575439453125 310.095458984375 267.33575439453125 309.054443359375 C 267.33575439453125 307.799072265625 267.48907470703125 306.712158203125 267.79571533203125 305.7935791015625 C 267.5504150390625 305.7935791015625 267.0137939453125 306.2681884765625 266.1859130859375 307.21728515625 C 265.3580017089844 308.16650390625 264.45343017578125 309.2994384765625 263.47222900390625 310.615966796875 C 262.52166748046875 311.9019775390625 261.57110595703125 313.17266845703125 260.62054443359375 314.42803955078125 C 259.66998291015625 315.68341064453125 258.9647216796875 316.6019287109375 258.5047912597656 317.1837158203125 C 257.73822021484375 318.0103759765625 257.01763916015625 318.6534423828125 256.3430480957031 319.1126708984375 C 255.66845703125 319.60260009765625 255.11651611328125 319.878173828125 254.687255859375 319.93939208984375 C 253.767333984375 319.93939208984375 252.7861328125 319.77099609375 251.74359130859375 319.4342041015625 C 250.731689453125 319.12799072265625 249.76580810546875 318.668701171875 248.84591674804688 318.05633544921875 C 247.926025390625 317.474609375 247.1287841796875 316.7703857421875 246.4542236328125 315.94366455078125 C 245.77960205078125 315.116943359375 245.31964111328125 314.16778564453125 245.0743408203125 313.09613037109375 C 245.0743408203125 311.412109375 245.120361328125 310.03424072265625 245.21234130859375 308.96258544921875 C 245.3043212890625 307.89093017578125 245.503662109375 306.7274169921875 245.81027221679688 305.4720458984375 C 246.33154296875 303.206298828125 247.09814453125 300.649658203125 248.11001586914062 297.8021240234375 C 249.15255737304688 294.9239501953125 250.34841918945312 292.10699462890625 251.69757080078125 289.351318359375 C 253.0467529296875 286.5650634765625 254.5645751953125 283.96240234375 256.25103759765625 281.5435791015625 C 257.9375305175781 279.12469482421875 259.71600341796875 277.226318359375 261.58642578125 275.8485107421875 C 262.13836669921875 275.8485107421875 262.7669677734375 275.90972900390625 263.47222900390625 276.0322265625 C 264.1774597167969 276.1240234375 264.8980712890625 276.3077392578125 265.63397216796875 276.5833740234375 C 266.369873046875 276.8282470703125 267.07513427734375 277.13446044921875 267.7497253417969 277.50189208984375 C 268.42431640625 277.86932373046875 268.9915771484375 278.3592529296875 269.4515380859375 278.9715576171875 C 268.93023681640625 279.5533447265625 267.5964050292969 281.52825927734375 265.4499816894531 284.89630126953125 C 263.3035888671875 288.264404296875 260.8965148925781 293.10211181640625 258.22882080078125 299.4095458984375 C 257.952880859375 300.0831298828125 257.6002197265625 301.04766845703125 257.17095947265625 302.30303955078125 C 256.7723388671875 303.52777099609375 256.3583984375 304.813720703125 255.9290771484375 306.1610107421875 C 255.53045654296875 307.5081787109375 255.19317626953125 308.840087890625 254.917236328125 310.15673828125 C 254.67193603515625 311.4427490234375 254.54925537109375 312.46844482421875 254.54925537109375 313.23388671875 C 254.54925537109375 313.7237548828125 254.610595703125 314.0911865234375 254.73321533203125 314.336181640625 C 254.88653564453125 314.550537109375 255.0245361328125 314.7188720703125 255.14718627929688 314.84136962890625 C 256.0364074707031 314.4739990234375 257.1556396484375 313.494140625 258.5047912597656 311.9019775390625 C 259.8539733886719 310.2791748046875 261.73974609375 307.81439208984375 264.1621398925781 304.507568359375 C 264.7447509765625 303.6502685546875 265.4346618652344 302.685791015625 266.23187255859375 301.6141357421875 C 267.02911376953125 300.54248046875 267.8417053222656 299.4095458984375 268.66961669921875 298.2154541015625 C 269.49749755859375 296.99072265625 270.2794189453125 295.719970703125 271.01531982421875 294.4034423828125 C 271.7512512207031 293.0867919921875 272.34918212890625 291.77020263671875 272.80914306640625 290.45361328125 C 273.054443359375 289.7493896484375 273.361083984375 288.9073486328125 273.72900390625 287.92755126953125 C 274.12762451171875 286.94775390625 274.6029052734375 285.9219970703125 275.15484619140625 284.850341796875 C 275.706787109375 283.7786865234375 276.3507080078125 282.6917724609375 277.08660888671875 281.5894775390625 C 277.8225402832031 280.4871826171875 278.6964416503906 279.46148681640625 279.70831298828125 278.5123291015625 C 280.47491455078125 278.5123291015625 281.2874755859375 278.6195068359375 282.14605712890625 278.83380126953125 C 283.0352783203125 279.01751708984375 283.8785095214844 279.262451171875 284.6757507324219 279.56866455078125 C 285.47296142578125 279.84423828125 286.16290283203125 280.16571044921875 286.7454833984375 280.53314208984375 C 287.3587646484375 280.86993408203125 287.8033752441406 281.23736572265625 288.079345703125 281.6353759765625 C 287.03680419921875 284.238037109375 285.85626220703125 286.8099365234375 284.53778076171875 289.351318359375 C 283.2499084472656 291.8927001953125 282.0387268066406 294.3880615234375 280.9041748046875 296.83758544921875 C 279.80029296875 299.287109375 278.8651123046875 301.7213134765625 278.0985107421875 304.14013671875 C 277.3319091796875 306.55902099609375 276.9486389160156 308.9320068359375 276.9486389160156 311.259033203125 C 276.9486389160156 312.4837646484375 277.05596923828125 313.555419921875 277.2706298828125 314.4739990234375 C 277.4852600097656 315.39251708984375 277.69989013671875 316.17333984375 277.91455078125 316.8162841796875 C 278.15985107421875 317.42864990234375 278.3898010253906 317.933837890625 278.60443115234375 318.3319091796875 C 278.819091796875 318.7606201171875 278.9264221191406 319.1126708984375 278.9264221191406 319.38824462890625 C 278.9264221191406 319.449462890625 278.8651123046875 319.5413818359375 278.742431640625 319.663818359375 C 278.68109130859375 319.8475341796875 278.6197814941406 319.93939208984375 278.5584716796875 319.93939208984375 C 278.1291809082031 319.93939208984375 277.59259033203125 319.8475341796875 276.9486389160156 319.663818359375 C 276.3047180175781 319.4801025390625 275.5841369628906 319.2198486328125 274.7868957519531 318.883056640625 C 273.9896545410156 318.5462646484375 273.1924133300781 318.16351318359375 272.3951721191406 317.73486328125 C 271.62860107421875 317.3367919921875 270.8773498535156 316.892822265625 270.14141845703125 316.4029541015625"/>
    <path stroke-width="0" fill="#d43900" opacity="1.0" d="M 288.17132568359375 316.0355224609375 C 288.32464599609375 315.1934814453125 288.5316162109375 314.217529296875 288.7922668457031 313.10760498046875 C 289.05291748046875 311.9976806640625 289.3671875 310.7537841796875 289.73516845703125 309.3759765625 C 290.1031188964844 307.99810791015625 290.5017395019531 306.578125 290.9310302734375 305.1160888671875 C 291.36029052734375 303.654052734375 291.82025146484375 302.14990234375 292.31085205078125 300.60369873046875 C 292.8167724609375 299.05743408203125 293.334228515625 297.50738525390625 293.8631591796875 295.9534912109375 C 294.39208984375 294.3995361328125 294.93255615234375 292.84185791015625 295.4844970703125 291.2802734375 C 296.0517578125 289.71875 296.6113586425781 288.237548828125 297.16326904296875 286.8367919921875 C 297.7152099609375 285.43597412109375 298.2594909667969 284.11553955078125 298.79608154296875 282.87548828125 C 299.56268310546875 281.0689697265625 300.2372741699219 279.6605224609375 300.8198547363281 278.65008544921875 C 301.4024658203125 277.6396484375 302.04638671875 276.7823486328125 302.75164794921875 276.078125 C 303.57952880859375 276.2005615234375 304.42279052734375 276.4149169921875 305.2813415527344 276.72113037109375 C 306.17059326171875 276.9967041015625 307.0291442871094 277.33349609375 307.8570556640625 277.7315673828125 C 308.6849365234375 278.12957763671875 309.42083740234375 278.5582275390625 310.0647888183594 279.01751708984375 C 310.7087097167969 279.4461669921875 311.21466064453125 279.8594970703125 311.5826110839844 280.257568359375 C 310.78533935546875 281.1761474609375 310.03411865234375 282.16357421875 309.328857421875 283.219970703125 C 308.62359619140625 284.2762451171875 307.96435546875 285.4014892578125 307.3511047363281 286.59564208984375 C 306.753173828125 287.77447509765625 306.1513977050781 289.1217041015625 305.5458068847656 290.6373291015625 C 304.9402160644531 292.1529541015625 304.330810546875 293.83697509765625 303.717529296875 295.68939208984375 C 304.5147705078125 294.9927978515625 305.2880554199219 294.30389404296875 306.0373840332031 293.62261962890625 C 306.78668212890625 292.94140625 307.5120849609375 292.26776123046875 308.2135009765625 291.601806640625 C 309.6163330078125 290.2698974609375 310.92333984375 288.9686279296875 312.134521484375 287.6978759765625 C 313.3610534667969 286.42724609375 314.54541015625 285.0838623046875 315.6876220703125 283.667724609375 C 316.829833984375 282.2515869140625 317.92987060546875 280.7628173828125 318.98773193359375 279.20123291015625 C 319.355712890625 278.9256591796875 319.9842834472656 278.787841796875 320.87353515625 278.787841796875 C 321.6707763671875 278.787841796875 322.45269775390625 278.9256591796875 323.21923828125 279.20123291015625 C 323.98583984375 279.4461669921875 324.5224609375 279.79827880859375 324.82904052734375 280.257568359375 C 324.29248046875 281.6507568359375 323.8900146484375 283.03240966796875 323.6217041015625 284.402587890625 C 323.3533935546875 285.77276611328125 323.21923828125 287.1314697265625 323.21923828125 288.47869873046875 C 323.21923828125 289.7493896484375 323.3150634765625 290.8631591796875 323.5067138671875 291.8199462890625 C 323.6983642578125 292.77679443359375 323.98583984375 293.57666015625 324.369140625 294.2197265625 C 324.30780029296875 294.5565185546875 323.9091796875 295.2301025390625 323.1732177734375 296.24053955078125 C 322.4373474121094 297.2203369140625 321.64007568359375 298.138916015625 320.78155517578125 298.9962158203125 C 319.18707275390625 298.20013427734375 317.76123046875 297.09783935546875 316.5040283203125 295.68939208984375 C 315.27752685546875 294.28094482421875 314.3729248046875 292.73468017578125 313.79034423828125 291.0506591796875 C 312.4105224609375 291.9998779296875 311.13031005859375 292.94140625 309.9497985839844 293.875244140625 C 308.769287109375 294.80908203125 307.68841552734375 295.7353515625 306.7071533203125 296.65386962890625 C 305.74127197265625 297.55712890625 304.8443908691406 298.51397705078125 304.0164794921875 299.5244140625 C 303.1885986328125 300.5347900390625 302.4296875 301.5987548828125 301.73974609375 302.71636962890625 C 301.0498352050781 303.833984375 300.40972900390625 305.0357666015625 299.8194580078125 306.32177734375 C 299.2292175292969 307.60772705078125 298.68878173828125 308.9779052734375 298.19818115234375 310.4322509765625 C 297.7075500488281 311.871337890625 297.2322998046875 313.4520263671875 296.7723388671875 315.17431640625 C 296.3123779296875 316.89666748046875 295.8677673339844 318.7606201171875 295.4384765625 320.76611328125 C 294.88653564453125 320.704833984375 294.24261474609375 320.505859375 293.5067138671875 320.1690673828125 C 292.77081298828125 319.86285400390625 292.0348815917969 319.4801025390625 291.2989501953125 319.0208740234375 C 290.56304931640625 318.5615234375 289.90380859375 318.05633544921875 289.3211975097656 317.5052490234375 C 288.73858642578125 316.98468017578125 288.3553161621094 316.4947509765625 288.17132568359375 316.0355224609375"/>
    <path stroke-width="0" fill="#d43900" opacity="1.0" d="M 357.2552490234375 281.08428955078125 C 357.13262939453125 282.8448486328125 356.906494140625 284.48291015625 356.57684326171875 285.99853515625 C 356.24725341796875 287.51416015625 355.8140869140625 288.9073486328125 355.27752685546875 290.17803955078125 C 354.7562255859375 291.44873046875 354.11614990234375 292.6390380859375 353.35723876953125 293.7489013671875 C 352.59832763671875 294.85888671875 351.7205810546875 295.888427734375 350.72406005859375 296.83758544921875 C 349.7427978515625 297.7867431640625 348.654296875 298.69384765625 347.45843505859375 299.558837890625 C 346.2625732421875 300.423828125 344.9593505859375 301.2467041015625 343.54888916015625 302.0274658203125 C 342.13836669921875 302.79296875 340.60906982421875 303.5430908203125 338.9609375 304.2779541015625 C 337.312744140625 305.0128173828125 335.5457763671875 305.7322998046875 333.6600341796875 306.4365234375 C 333.6600341796875 306.7733154296875 333.64471435546875 307.12548828125 333.614013671875 307.492919921875 C 333.5833740234375 307.8603515625 333.56805419921875 308.25836181640625 333.56805419921875 308.68701171875 C 333.56805419921875 309.421875 333.62939453125 310.1873779296875 333.75201416015625 310.9833984375 C 333.8746337890625 311.779541015625 334.073974609375 312.5296630859375 334.3499755859375 313.23388671875 C 334.65655517578125 313.907470703125 335.070556640625 314.4586181640625 335.591796875 314.8873291015625 C 336.11309814453125 315.31597900390625 336.78765869140625 315.5302734375 337.6156005859375 315.5302734375 C 339.21002197265625 315.5302734375 340.77386474609375 315.1934814453125 342.3070068359375 314.5198974609375 C 343.8402099609375 313.815673828125 345.29669189453125 312.9736328125 346.676513671875 311.99383544921875 C 348.05633544921875 310.9833984375 349.34423828125 309.896484375 350.5400390625 308.73291015625 C 351.7666015625 307.538818359375 352.8551025390625 306.451904296875 353.8056640625 305.4720458984375 C 354.3883056640625 305.9925537109375 354.87890625 306.497802734375 355.27752685546875 306.9876708984375 C 353.958984375 308.70233154296875 352.5753173828125 310.27154541015625 351.12646484375 311.6953125 C 349.67767333984375 313.11907958984375 348.1636962890625 314.39739990234375 346.58453369140625 315.5302734375 C 345.02069091796875 316.6632080078125 343.49139404296875 317.59326171875 341.99658203125 318.3204345703125 C 340.501708984375 319.047607421875 339.0413818359375 319.57196044921875 337.6156005859375 319.8934326171875 C 335.591796875 319.663818359375 333.79034423828125 319.1854248046875 332.211181640625 318.458251953125 C 330.632080078125 317.73101806640625 329.27520751953125 316.7550048828125 328.14068603515625 315.5302734375 C 327.00616455078125 314.3055419921875 326.1552734375 312.9544677734375 325.58795166015625 311.4771728515625 C 325.02069091796875 309.99981689453125 324.737060546875 308.3961181640625 324.737060546875 306.66619873046875 C 324.737060546875 305.48736572265625 324.8214111328125 304.29705810546875 324.99005126953125 303.09527587890625 C 325.15869140625 301.89349365234375 325.41162109375 300.68023681640625 325.74896240234375 299.45550537109375 C 326.08624267578125 298.230712890625 326.48870849609375 297.0289306640625 326.956298828125 295.85009765625 C 327.4239501953125 294.67132568359375 327.9566650390625 293.5155029296875 328.55462646484375 292.382568359375 C 329.16790771484375 291.24969482421875 329.83099365234375 290.14739990234375 330.54388427734375 289.07574462890625 C 331.2568359375 288.00408935546875 332.01953125 286.96307373046875 332.8321533203125 285.95263671875 C 333.64471435546875 284.9422607421875 334.484130859375 283.99688720703125 335.350341796875 283.1165771484375 C 336.216552734375 282.236328125 337.109619140625 281.42108154296875 338.029541015625 280.6708984375 C 339.86932373046875 279.170654296875 341.77044677734375 277.9918212890625 343.73284912109375 277.13446044921875 C 345.7259521484375 276.27716064453125 347.68841552734375 275.8485107421875 349.62017822265625 275.8485107421875 C 350.98468017578125 276.0322265625 352.30322265625 276.56036376953125 353.57568359375 277.4329833984375 C 354.84820556640625 278.3056640625 356.07476806640625 279.522705078125 357.2552490234375 281.08428955078125M 351.13800048828125 283.8858642578125 C 349.54351806640625 284.1002197265625 347.8876953125 284.7279052734375 346.17059326171875 285.7689208984375 C 344.484130859375 286.77935791015625 342.8896484375 288.141845703125 341.38714599609375 289.8565673828125 C 340.6358642578125 290.7138671875 339.915283203125 291.6439208984375 339.22540283203125 292.64666748046875 C 338.53546142578125 293.6494140625 337.876220703125 294.72491455078125 337.24761962890625 295.87310791015625 C 336.63433837890625 297.0059814453125 336.08624267578125 298.1810302734375 335.603271484375 299.3980712890625 C 335.120361328125 300.61517333984375 334.70257568359375 301.8743896484375 334.3499755859375 303.1756591796875 C 335.53045654296875 302.6092529296875 336.66021728515625 302.00927734375 337.73919677734375 301.3758544921875 C 338.818115234375 300.742431640625 339.8463134765625 300.0755615234375 340.82373046875 299.3751220703125 C 342.7784423828125 297.97430419921875 344.53009033203125 296.4395751953125 346.07861328125 294.7708740234375 C 347.64239501953125 293.10211181640625 348.845947265625 291.3607177734375 349.68914794921875 289.5465087890625 C 350.53240966796875 287.73236083984375 351.015380859375 285.845458984375 351.13800048828125 283.8858642578125"/>
    <path stroke-width="0" fill="#d43900" opacity="1.0" d="M 390.46630859375 319.25482177734375 C 395.6813659667969 318.074462890625 396.3507080078125 320.8706970214844 396.124755859375 321.3345642089844 C 395.9726867675781 321.47833251953125 395.753173828125 321.71820068359375 395.3334045410156 321.28948974609375 C 394.8172607421875 321.40802001953125 394.5281677246094 321.4649658203125 394.2469482421875 321.52862548828125 C 393.923095703125 320.8079833984375 392.95062255859375 321.47955322265625 391.8080749511719 322.7679443359375 C 391.4191589355469 324.195556640625 390.1439208984375 324.56573486328125 387.90521240234375 325.356689453125 C 387.2674865722656 325.3910827636719 383.69366455078125 325.3572082519531 381.3740539550781 324.4532470703125 C 379.1687927246094 323.1441345214844 382.2709655761719 323.22491455078125 381.3260803222656 323.4373779296875 C 378.8664855957031 323.63250732421875 378.5759582519531 323.71337890625 377.2982482910156 324.61285400390625 C 375.69268798828125 326.24957275390625 373.5887145996094 327.29510498046875 367.739013671875 324.29241943359375 C 361.0685119628906 328.328369140625 358.91107177734375 325.9703063964844 359.95294189453125 317.46600341796875 C 362.9599609375 324.187744140625 364.4126281738281 319.8800048828125 364.2939147949219 313.4961242675781 C 359.78179931640625 313.2307434082031 359.6208190917969 313.0999450683594 360.1031494140625 312.0462951660156 C 360.2842712402344 311.5348205566406 360.5672302246094 310.2795715332031 360.2225036621094 297.2386779785156 C 361.4622802734375 296.1246643066406 361.60650634765625 296.0077819824219 370.6376647949219 294.702392578125 C 374.02667236328125 293.132080078125 374.9137268066406 292.0500793457031 375.66778564453125 287.42620849609375 C 376.0242919921875 283.9235534667969 376.0388488769531 280.9182434082031 376.0732727050781 277.69219970703125 C 376.28790283203125 275.2904357910156 376.33807373046875 273.2131042480469 377.0929870605469 270.8104553222656 C 377.1939392089844 267.64447021484375 377.1770935058594 263.08087158203125 379.54180908203125 261.475341796875 C 379.6166687011719 261.2084655761719 379.4750671386719 259.6729431152344 376.17108154296875 251.5282440185547 C 381.4712219238281 250.62216186523438 382.1918029785156 250.328369140625 383.6384582519531 259.12353515625 C 388.6427001953125 260.26776123046875 391.6307373046875 262.60455322265625 394.4757385253906 266.0244140625 C 393.7482604980469 267.5163269042969 392.7474365234375 269.1863708496094 392.2735290527344 270.28326416015625 C 384.0369567871094 271.90057373046875 386.11956787109375 268.33489990234375 385.07171630859375 270.712158203125 C 384.71600341796875 273.1597900390625 384.6919250488281 274.9828796386719 384.8808898925781 278.0393371582031 C 385.26318359375 281.7154235839844 385.0952453613281 286.1795349121094 384.8591613769531 291.4686279296875 C 384.2994079589844 294.63226318359375 383.66845703125 301.047607421875 381.41552734375 306.51495361328125 C 376.6605529785156 309.8242492675781 376.3606262207031 310.1249694824219 374.67938232421875 311.2124328613281 C 370.8721008300781 312.2834777832031 370.6647033691406 312.5046081542969 370.6275329589844 312.890869140625 C 370.4672546386719 313.7914123535156 370.2622375488281 314.9669494628906 370.6764831542969 317.85894775390625 C 369.1902770996094 322.2738037109375 370.49822998046875 321.18585205078125 371.4665832519531 320.00823974609375 C 372.1931457519531 319.2861022949219 373.13836669921875 318.5592956542969 374.50433349609375 317.54571533203125 C 375.8824768066406 316.7216796875 377.4870300292969 316.405517578125 378.7272644042969 316.19036865234375 C 379.5559387207031 316.0638732910156 381.0205078125 315.6657409667969 382.32623291015625 315.43121337890625 C 383.6041259765625 315.98834228515625 384.52801513671875 316.284912109375 384.67425537109375 316.34197998046875 C 385.43701171875 316.5365295410156 385.9241943359375 316.54632568359375 387.34234619140625 316.36700439453125 C 388.058837890625 316.2599182128906 386.281982421875 316.1081237792969 387.9641418457031 315.3021240234375 C 388.1210632324219 315.4652404785156 389.0372619628906 317.111572265625 390.46630859375 319.25482177734375"/>
    <path stroke-width="0" fill="#d43900" opacity="1.0" d="M 415.530517578125 319.709716796875 C 413.843994140625 319.5413818359375 412.33001708984375 319.097412109375 410.988525390625 318.3778076171875 C 409.64697265625 317.6583251953125 408.47796630859375 316.6632080078125 407.4814453125 315.39251708984375 C 406.48486328125 314.121826171875 405.7374267578125 312.678955078125 405.23919677734375 311.0638427734375 C 404.99005126953125 310.2562255859375 404.80322265625 309.4056396484375 404.6785888671875 308.511962890625 C 404.5540771484375 307.6182861328125 404.49176025390625 306.6815185546875 404.49176025390625 305.70166015625 C 404.49176025390625 304.553466796875 404.5799560546875 303.38616943359375 404.7562255859375 302.19970703125 C 404.93255615234375 301.01318359375 405.197021484375 299.8076171875 405.5496826171875 298.5828857421875 C 405.9022216796875 297.3427734375 406.3277587890625 296.12188720703125 406.82598876953125 294.92010498046875 C 407.32427978515625 293.71832275390625 407.8953857421875 292.53564453125 408.539306640625 291.3721923828125 C 409.1832275390625 290.193359375 409.88848876953125 289.05279541015625 410.655029296875 287.9505615234375 C 411.421630859375 286.8482666015625 412.24951171875 285.78424072265625 413.1387939453125 284.758544921875 C 414.0279541015625 283.717529296875 414.95172119140625 282.7491455078125 415.909912109375 281.85357666015625 C 416.8681640625 280.9580078125 417.86083984375 280.1351318359375 418.8880615234375 279.38494873046875 C 419.6929931640625 278.7955322265625 420.4864501953125 278.27978515625 421.268310546875 277.8377685546875 C 422.05023193359375 277.39569091796875 422.82061767578125 277.02734375 423.57952880859375 276.73260498046875 C 425.097412109375 276.1431884765625 426.5692138671875 275.8485107421875 427.9949951171875 275.8485107421875 C 428.9302978515625 276.32305908203125 429.8577880859375 277.05029296875 430.7777099609375 278.030029296875 C 431.6976318359375 279.0098876953125 432.60986328125 280.2423095703125 433.514404296875 281.727294921875 C 433.821044921875 281.727294921875 434.0816650390625 281.727294921875 434.2962646484375 281.727294921875 C 434.5416259765625 281.727294921875 434.81756591796875 281.727294921875 435.12420654296875 281.727294921875 C 436.68798828125 281.727294921875 437.86083984375 282.40472412109375 438.642822265625 283.75958251953125 C 439.03375244140625 284.43701171875 439.32696533203125 285.2838134765625 439.5224609375 286.29998779296875 C 439.7178955078125 287.316162109375 439.815673828125 288.50164794921875 439.815673828125 289.8565673828125 C 439.815673828125 290.7674560546875 439.77734375 291.6668701171875 439.70068359375 292.5548095703125 C 439.6240234375 293.4427490234375 439.509033203125 294.3192138671875 439.355712890625 295.1842041015625 C 439.049072265625 296.9141845703125 438.589111328125 298.59814453125 437.975830078125 300.23626708984375 C 437.3779296875 301.8743896484375 436.6611328125 303.4359130859375 435.82562255859375 304.9208984375 C 434.99005126953125 306.40594482421875 434.03564453125 307.81439208984375 432.96246337890625 309.14630126953125 C 431.88922119140625 310.47821044921875 430.7125244140625 311.7030029296875 429.432373046875 312.820556640625 C 428.15216064453125 313.9381103515625 426.7685546875 314.94854736328125 425.2813720703125 315.851806640625 C 423.794189453125 316.7550048828125 422.238037109375 317.5281982421875 420.6129150390625 318.171142578125 C 419.80029296875 318.49267578125 418.970458984375 318.7816162109375 418.1234130859375 319.0380859375 C 417.2763671875 319.29449462890625 416.41204833984375 319.5184326171875 415.530517578125 319.709716796875M 420.0379638671875 292.382568359375 C 419.02606201171875 293.69921875 418.0755615234375 295.13824462890625 417.186279296875 296.6998291015625 C 416.29705810546875 298.2613525390625 415.530517578125 299.8382568359375 414.8865966796875 301.430419921875 C 414.24267578125 303.0225830078125 413.7366943359375 304.553466796875 413.3687744140625 306.023193359375 C 413.03143310546875 307.492919921875 412.86279296875 308.80950927734375 412.86279296875 309.9730224609375 C 412.86279296875 311.350830078125 413.0927734375 312.6827392578125 413.552734375 313.96875 C 414.0433349609375 315.22412109375 414.5799560546875 315.94366455078125 415.16253662109375 316.12738037109375 C 416.496337890625 315.83648681640625 417.772705078125 315.4193115234375 418.9915771484375 314.8758544921875 C 420.21044921875 314.33233642578125 421.371826171875 313.66259765625 422.4757080078125 312.866455078125 C 423.57952880859375 312.0704345703125 424.60675048828125 311.1785888671875 425.55731201171875 310.191162109375 C 426.50787353515625 309.2037353515625 427.38177490234375 308.12060546875 428.17901611328125 306.9417724609375 C 428.9915771484375 305.74761962890625 429.7159423828125 304.4769287109375 430.352294921875 303.1297607421875 C 430.988525390625 301.782470703125 431.53662109375 300.3587646484375 431.99658203125 298.8583984375 C 432.45654296875 297.358154296875 432.801513671875 295.80804443359375 433.03143310546875 294.208251953125 C 433.26141357421875 292.6083984375 433.37640380859375 290.95880126953125 433.37640380859375 289.25946044921875 C 433.37640380859375 287.728515625 433.284423828125 286.534423828125 433.1004638671875 285.6771240234375 C 432.91644287109375 284.81976318359375 432.6251220703125 284.069580078125 432.2265625 283.4266357421875 C 430.92333984375 283.809326171875 429.6929931640625 284.306884765625 428.53546142578125 284.9193115234375 C 427.3779296875 285.5316162109375 426.293212890625 286.25885009765625 425.2813720703125 287.100830078125 C 424.26947021484375 287.92755126953125 423.3265380859375 288.78106689453125 422.45263671875 289.661376953125 C 421.5787353515625 290.5416259765625 420.77386474609375 291.44873046875 420.0379638671875 292.382568359375"/>
    <path stroke-width="0" fill="#d43900" opacity="1.0" d="M 425.5113525390625 342.9034423828125 C 425.5113525390625 342.56658935546875 425.63397216796875 342.2451171875 425.8792724609375 341.93896484375 C 426.1246337890625 341.663330078125 426.38525390625 341.3878173828125 426.66119384765625 341.1121826171875 C 427.366455078125 341.724609375 427.97967529296875 342.19921875 428.5009765625 342.5360107421875 C 428.9915771484375 342.9034423828125 429.46685791015625 343.19427490234375 429.92681884765625 343.40863037109375 C 430.3560791015625 343.6229248046875 430.8160400390625 343.7607421875 431.306640625 343.82196044921875 C 431.7666015625 343.8831787109375 432.3184814453125 343.913818359375 432.96246337890625 343.913818359375 C 436.02874755859375 343.913818359375 438.9417724609375 343.11773681640625 441.701416015625 341.52557373046875 C 444.46112060546875 339.9639892578125 447.0521240234375 337.6982421875 449.4744873046875 334.72821044921875 C 451.9276123046875 331.7581787109375 454.150634765625 328.1298828125 456.14373779296875 323.84326171875 C 458.16748046875 319.556640625 459.9459228515625 314.70361328125 461.4791259765625 309.2840576171875 C 460.77386474609375 309.98828125 459.89996337890625 310.7537841796875 458.857421875 311.58050537109375 C 457.8455810546875 312.4072265625 456.7723388671875 313.2032470703125 455.6378173828125 313.96875 C 454.533935546875 314.70361328125 453.4300537109375 315.39251708984375 452.326171875 316.0355224609375 C 451.25299072265625 316.678466796875 450.33306884765625 317.1378173828125 449.5665283203125 317.413330078125 C 448.55462646484375 317.2296142578125 447.619384765625 316.8162841796875 446.7608642578125 316.17333984375 C 445.90228271484375 315.49969482421875 445.1510009765625 314.6729736328125 444.507080078125 313.69317626953125 C 443.8631591796875 312.71337890625 443.35723876953125 311.611083984375 442.9892578125 310.3863525390625 C 442.6519775390625 309.1309814453125 442.48333740234375 307.81439208984375 442.48333740234375 306.4365234375 C 442.48333740234375 304.1707763671875 442.91259765625 301.85906982421875 443.77117919921875 299.50146484375 C 444.6297607421875 297.1131591796875 445.7642822265625 294.7861328125 447.1748046875 292.5203857421875 C 448.5853271484375 290.2239990234375 450.2410888671875 288.0653076171875 452.1422119140625 286.04449462890625 C 454.073974609375 284.023681640625 456.11309814453125 282.2630615234375 458.259521484375 280.7628173828125 C 460.4058837890625 279.262451171875 462.5830078125 278.068359375 464.790771484375 277.180419921875 C 466.99847412109375 276.29248046875 469.16021728515625 275.8485107421875 471.2760009765625 275.8485107421875 C 473.3304443359375 275.8485107421875 474.863525390625 276.29248046875 475.87548828125 277.180419921875 C 476.91796875 278.068359375 477.6845703125 279.5992431640625 478.1751708984375 281.773193359375 C 477.53125 281.4364013671875 476.703369140625 281.26800537109375 475.69146728515625 281.26800537109375 C 474.281005859375 281.26800537109375 472.6405029296875 281.819091796875 470.77001953125 282.92138671875 C 468.9302978515625 283.9930419921875 467.04443359375 285.4014892578125 465.1126708984375 287.14678955078125 C 463.2115478515625 288.8614501953125 461.31048583984375 290.8516845703125 459.40936279296875 293.117431640625 C 457.5389404296875 295.35260009765625 455.88311767578125 297.64898681640625 454.44195556640625 300.006591796875 C 453.000732421875 302.3336181640625 451.82025146484375 304.61474609375 450.900390625 306.84991455078125 C 450.0111083984375 309.054443359375 449.5665283203125 311.02935791015625 449.5665283203125 312.774658203125 C 449.5665283203125 313.17266845703125 449.58184814453125 313.4176025390625 449.612548828125 313.50946044921875 C 449.673828125 313.601318359375 449.765869140625 313.647216796875 449.88848876953125 313.647216796875 C 450.4404296875 313.647216796875 451.1610107421875 313.3717041015625 452.05023193359375 312.820556640625 C 452.9700927734375 312.23876953125 453.997314453125 311.50390625 455.1318359375 310.615966796875 C 456.29705810546875 309.72802734375 457.492919921875 308.70233154296875 458.719482421875 307.538818359375 C 459.9766845703125 306.37530517578125 461.15716552734375 305.196533203125 462.26104736328125 304.00238037109375 C 464.80609130859375 301.2467041015625 467.12109375 298.184814453125 469.20623779296875 294.8167724609375 C 471.29132080078125 291.4180908203125 472.9471435546875 288.095947265625 474.17364501953125 284.850341796875 C 475.76812744140625 284.97283935546875 477.1785888671875 285.2484130859375 478.4051513671875 285.6771240234375 C 479.662353515625 286.07513427734375 480.5208740234375 286.5037841796875 480.9808349609375 286.96307373046875 C 478.98773193359375 291.4639892578125 477.3779296875 295.24542236328125 476.1513671875 298.3072509765625 C 474.95556640625 301.3385009765625 473.91302490234375 304.032958984375 473.0238037109375 306.390625 C 471.4599609375 310.5548095703125 469.9727783203125 314.336181640625 468.562255859375 317.73486328125 C 467.1824951171875 321.1641845703125 465.77197265625 324.33319091796875 464.330810546875 327.241943359375 C 462.8896484375 330.1507568359375 461.3258056640625 332.8604736328125 459.63934326171875 335.3712158203125 C 457.9835205078125 337.8819580078125 456.0977783203125 340.2855224609375 453.98199462890625 342.5819091796875 C 452.9700927734375 343.6842041015625 451.82025146484375 344.648681640625 450.53240966796875 345.475341796875 C 449.27520751953125 346.33270263671875 447.98736572265625 347.03692626953125 446.6688232421875 347.58807373046875 C 445.350341796875 348.1697998046875 444.047119140625 348.5985107421875 442.75927734375 348.8740234375 C 441.5020751953125 349.18023681640625 440.35223388671875 349.3333740234375 439.3096923828125 349.3333740234375 C 437.899169921875 349.3333740234375 436.4580078125 349.1649169921875 434.9862060546875 348.828125 C 433.514404296875 348.4913330078125 432.14990234375 348.0167236328125 430.8927001953125 347.40435791015625 C 429.6048583984375 346.8226318359375 428.5009765625 346.1336669921875 427.5810546875 345.33758544921875 C 426.6304931640625 344.5721435546875 425.94061279296875 343.7607421875 425.5113525390625 342.9034423828125"/>
  </g>
</svg>